<svg xmlns="http://www.w3.org/2000/svg" width="720" height="390" viewBox="0 0 720 390" font-family="sans-serif">
<rect width="100%" height="100%" fill="#ffffff"/>
<line x1="108" y1="142" x2="94" y2="178" stroke="#ccc" stroke-width="1"/>
<rect x="89" y="174" width="10" height="8" fill="#262626"/>
<line x1="108" y1="142" x2="122" y2="178" stroke="#ccc" stroke-width="1"/>
<rect x="117" y="174" width="10" height="8" fill="#262626"/>
<line x1="160" y1="70" x2="108" y2="142" stroke="#888" stroke-width="2"/>
<line x1="160" y1="70" x2="212" y2="142" stroke="#888" stroke-width="2"/>
<line x1="212" y1="142" x2="198" y2="178" stroke="#ccc" stroke-width="1"/>
<rect x="193" y="174" width="10" height="8" fill="#262626"/>
<line x1="212" y1="142" x2="226" y2="178" stroke="#ccc" stroke-width="1"/>
<rect x="221" y="174" width="10" height="8" fill="#262626"/>
<circle cx="108" cy="142" r="18" fill="#d83b3b"/>
<text x="108" y="142" font-size="13" fill="#fff" text-anchor="middle" dominant-baseline="central" font-weight="bold">20</text>
<circle cx="160" cy="70" r="18" fill="#262626"/>
<text x="160" y="70" font-size="13" fill="#fff" text-anchor="middle" dominant-baseline="central" font-weight="bold">40</text>
<circle cx="212" cy="142" r="29" fill="none" stroke="#2f6fde" stroke-width="2" stroke-dasharray="4 3"/>
<circle cx="212" cy="142" r="18" fill="#d83b3b"/>
<text x="212" y="142" font-size="13" fill="#fff" text-anchor="middle" dominant-baseline="central" font-weight="bold">60</text>
<g transform="translate(320,0)">
<rect x="0" y="0" width="400" height="390" fill="#f5f6f8"/>
<text x="20" y="36" font-size="18" font-weight="bold" fill="#222">Red-Black Tree 규칙 검사</text>
<text x="20" y="62" font-size="14" fill="#2f6fde">방금 삽입: 60 (파란 점선)</text>
<rect x="20" y="78" width="360" height="34" rx="6" fill="#1f8a4c"/>
<text x="200" y="100" font-size="15" fill="#fff" font-weight="bold" text-anchor="middle">✔ 모든 규칙 만족</text>
<text x="20" y="142" font-size="15" fill="#1f8a4c" font-weight="bold">✔</text>
<text x="42" y="142" font-size="14" fill="#222">1. 모든 노드는 빨강 또는 검정</text>
<text x="20" y="168" font-size="15" fill="#1f8a4c" font-weight="bold">✔</text>
<text x="42" y="168" font-size="14" fill="#222">2. 루트는 검은색</text>
<text x="20" y="194" font-size="15" fill="#1f8a4c" font-weight="bold">✔</text>
<text x="42" y="194" font-size="14" fill="#222">3. NIL(리프)은 검은색</text>
<text x="20" y="220" font-size="15" fill="#1f8a4c" font-weight="bold">✔</text>
<text x="42" y="220" font-size="14" fill="#222">4. 빨간 노드의 자식은 검은색</text>
<text x="20" y="246" font-size="15" fill="#1f8a4c" font-weight="bold">✔</text>
<text x="42" y="246" font-size="14" fill="#222">5. 모든 경로의 black-height 동일 (bh=1)</text>
<text x="20" y="280" font-size="13" fill="#666">구조 검사</text>
<text x="20" y="304" font-size="15" fill="#1f8a4c" font-weight="bold">✔</text>
<text x="42" y="304" font-size="14" fill="#222">BST 대소관계 유지</text>
<text x="20" y="330" font-size="15" fill="#1f8a4c" font-weight="bold">✔</text>
<text x="42" y="330" font-size="14" fill="#222">child ↔ parent 링크 일치</text>
<text x="20" y="364" font-size="13" fill="#666">삽입 순서</text>
<text x="20" y="384" font-size="13" fill="#222">40 → 20 → 60</text>
</g>
</svg>
